<?xml version="1.0" encoding="utf-8"?>
<!-- Generator: Adobe Illustrator 24.1.3, SVG Export Plug-In . SVG Version: 6.00 Build 0)  -->
<svg version="1.1" id="Layer_1" xmlns="http://www.w3.org/2000/svg" xmlns:xlink="http://www.w3.org/1999/xlink" x="0px" y="0px"
	 viewBox="0 0 521.3 521.3" style="enable-background:new 0 0 521.3 521.3;" xml:space="preserve">
<path d="M444.2,444.2h-77.2v-121c0-28.8-0.5-66-40.2-66c-40.2,0-46.4,31.4-46.4,63.9v123.1h-77.2V195.4h74.1v34h1
	c15.1-25.9,43.2-41.3,73.2-40.2c78.3,0,92.7,51.5,92.7,118.5L444.2,444.2z M116,161.4c-24.8,0-44.8-20.1-44.8-44.8
	c0-24.8,20.1-44.8,44.8-44.8c24.8,0,44.8,20.1,44.8,44.8c0,0,0,0,0,0C160.8,141.3,140.7,161.4,116,161.4L116,161.4 M154.6,444.2
	H77.3V195.4h77.3L154.6,444.2z M482.7,0H38.5C17.5-0.2,0.3,16.6,0,37.6c0,0,0,0.1,0,0.1v446c0.2,21,17.5,37.8,38.5,37.6h444.2
	c21.1,0.3,38.4-16.6,38.7-37.6V37.6C521,16.5,503.7-0.3,482.7,0"/>
</svg>
